<svg width="256" height="256" viewBox="0 0 256 256" xmlns="http://www.w3.org/2000/svg" role="img" aria-label="WeChat icon">
  <defs>
    <radialGradient id="wechatGradient" cx="30%" cy="30%" r="70%">
      <stop offset="0%" stop-color="#54f0a2" />
      <stop offset="100%" stop-color="#22a757" />
    </radialGradient>
  </defs>
  <circle cx="128" cy="128" r="120" fill="url(#wechatGradient)" />
  <path d="M162 96c28 0 50 20 50 45s-22 45-50 45a66 66 0 0 1-24-4l-22 16 6-24c-18-6-30-21-30-37 0-24 22-41 50-41 10 0 19 2 27 5 7-3 15-5 23-5z" fill="#ffffff" opacity="0.85" />
  <circle cx="148" cy="140" r="8" fill="#1c7340" />
  <circle cx="188" cy="140" r="8" fill="#1c7340" />
</svg>
